M48
; DRILL file {KiCad 7.0.0} date Sat 04 Mar 2023 18:46:47 CET
; FORMAT={-:-/ absolute / metric / decimal}
; #@! TF.CreationDate,2023-03-04T18:46:47+01:00
; #@! TF.GenerationSoftware,Kicad,Pcbnew,7.0.0
; #@! TF.FileFunction,Plated,1,2,PTH
FMAT,2
METRIC
; #@! TA.AperFunction,Plated,PTH,ViaDrill
T1C0.400
; #@! TA.AperFunction,Plated,PTH,ComponentDrill
T2C0.900
; #@! TA.AperFunction,Plated,PTH,ComponentDrill
T3C1.000
%
G90
G05
T1
X103.3Y-101.2
X104.9Y-119.1
X106.3Y-105.35
X106.3Y-108.79
X106.6Y-112.0
X106.8Y-114.9
X107.5Y-111.5
X109.0Y-119.3
X109.1Y-104.65
X112.1Y-112.3
X114.15Y-104.65
X114.6Y-112.15
X115.8Y-101.8
X115.8Y-103.7
X117.5Y-110.8
X118.2Y-101.2
X119.0Y-102.0
X119.7Y-114.9
X120.2Y-116.0
X120.2Y-117.65
X120.2Y-119.45
X121.325Y-116.875
X121.38Y-112.15
X121.4Y-97.0
X121.4Y-114.5
X121.5Y-107.3
X121.7Y-109.7
X122.3Y-106.4
X122.5Y-98.5
X123.8Y-118.4
X124.0Y-106.1
X124.3Y-93.85
X124.4Y-108.95
X125.1Y-98.1
X125.55Y-116.75
X125.6Y-112.3
X126.2Y-104.1
X126.2Y-109.4
X126.35Y-118.95
X127.0Y-107.7
X127.15Y-116.75
X127.5Y-90.0
X127.5Y-111.975
X128.6Y-88.9
X128.7Y-107.9
X128.8Y-95.7
X129.1Y-112.9
X130.0Y-111.975
X130.2Y-102.75
X130.35Y-78.65
X130.377Y-103.827
X130.6Y-116.5
X131.4Y-100.1
X131.5Y-94.1
X131.55Y-107.825
X131.65Y-113.85
X132.0Y-73.6
X132.0Y-116.6
X132.1Y-112.2
X132.35Y-95.65
X132.5Y-98.4
X132.75Y-83.9
X133.25Y-70.75
X133.35Y-102.1
X133.35Y-114.55
X133.8Y-97.4
X133.8Y-117.7
X133.95Y-105.55
X133.95Y-106.85
X134.2Y-74.3
X135.0Y-94.9
X135.35Y-72.7
X135.499Y-103.6
X135.5Y-102.5
X135.5Y-104.7
X135.6Y-98.2
X135.7Y-116.15
X135.8Y-82.2
X135.8Y-92.1
X136.0Y-74.4
X136.5Y-115.375
X136.65Y-95.8
X136.8Y-97.4
X137.171Y-100.671
X137.4Y-92.8
X137.9Y-74.4
X137.9Y-75.6
X138.0Y-117.1
X138.1Y-114.6
X138.7Y-106.0
X139.1Y-89.9
X139.1Y-91.9
X139.15Y-118.4
X139.5Y-101.7
X140.1Y-105.8
X140.2Y-89.9
X140.4Y-75.6
X140.4Y-76.9
X140.817Y-115.375
X141.0Y-108.4
X141.3Y-89.9
X141.55Y-94.6
X141.6Y-99.6
X141.6Y-106.6
X141.7Y-104.4
X141.7Y-105.5
X142.4Y-117.0
X142.4Y-118.25
X142.5Y-111.8
X143.1Y-76.4
X143.2Y-79.4
X143.35Y-116.15
X143.9Y-101.2
X144.0Y-93.4
X144.0Y-94.6
X144.2Y-72.7
X144.35Y-116.1
X144.4Y-106.2
X144.55Y-76.4
X144.6Y-75.15
X144.6Y-102.0
X145.2Y-94.6
X145.2Y-95.8
X145.5Y-99.8
X145.65Y-115.6
X145.7Y-120.2
X146.05Y-106.2
X146.1Y-73.85
X146.2Y-111.8
X146.4Y-95.8
X146.7Y-99.8
X147.1Y-108.7
X147.125Y-103.65
X147.2Y-96.6
X147.5Y-99.0
X148.05Y-72.7
X148.2Y-94.1
X148.2Y-108.7
X148.8Y-94.9
X149.25Y-108.7
X149.25Y-112.4
X149.3Y-72.7
X149.3Y-73.85
X149.8Y-97.4
X150.0Y-82.0
X150.0Y-116.4
X150.5Y-108.7
X150.55Y-72.7
X150.6Y-74.7
X150.68Y-104.205
X150.9Y-92.6
X151.0Y-103.0
X151.1Y-88.2
X151.2Y-116.5
X151.5Y-107.6
X151.7Y-93.4
X152.15Y-101.7
X152.6Y-102.702
X152.7Y-107.6
X152.7Y-108.7
X152.8Y-100.7
X153.0Y-114.4
X153.2Y-92.3
X154.0Y-108.7
X154.2Y-91.5
X154.3Y-111.8
X154.4Y-116.4
X155.2Y-90.7
X155.3Y-108.7
X155.3Y-113.4
X155.7Y-100.1
X155.7Y-101.3
X156.05Y-103.85
X156.4Y-84.7
X156.4Y-86.7
X156.5Y-108.7
X156.6Y-97.0
X156.6Y-118.3
X156.6Y-120.1
X156.8Y-111.8
X156.9Y-70.5
X157.6Y-103.85
X157.65Y-113.95
X157.8Y-72.7
X157.9Y-98.8
X158.956Y-95.95
X159.1Y-93.2
X159.4Y-89.8
X159.75Y-72.7
X159.75Y-77.0
X160.2Y-93.0
X160.4Y-86.0
X160.5Y-111.249
X160.6Y-109.2
X161.15Y-79.1
X161.175Y-93.35
X162.2Y-98.4
X162.484Y-109.996
X163.188Y-101.3
X163.6Y-89.0
X163.6Y-91.3
X164.2Y-98.4
X164.3Y-110.95
X165.2Y-102.9
X165.225Y-94.425
X165.25Y-105.1
X165.3Y-91.9
X165.3Y-104.0
X165.55Y-110.95
X166.802Y-73.228
X166.9Y-109.2
X167.0Y-117.6
X168.025Y-73.228
X168.5Y-91.25
X168.5Y-92.55
X168.5Y-93.85
X168.5Y-95.15
X168.5Y-96.45
X168.5Y-97.75
X168.5Y-99.05
X169.3Y-72.2
X169.3Y-107.0
X169.4Y-112.5
X169.4Y-117.6
X170.8Y-114.3
X171.1Y-104.1
X171.1Y-107.5
X172.1Y-104.7
X173.8Y-112.1
X174.4Y-78.0
X174.9Y-110.2
X174.9Y-115.25
X175.6Y-72.4
X177.2Y-112.1
T3
X110.704Y-100.704
X112.5Y-98.908
X112.5Y-102.5
X114.296Y-97.112
X114.296Y-100.704
X116.092Y-98.908
X181.16Y-75.84
X181.16Y-78.38
X181.16Y-80.92
X181.16Y-83.46
X181.16Y-86.0
X181.16Y-88.54
X181.16Y-91.08
X181.16Y-93.62
X181.16Y-96.16
X181.16Y-98.7
X183.7Y-75.84
X183.7Y-78.38
X183.7Y-80.92
X183.7Y-83.46
X183.7Y-86.0
X183.7Y-88.54
X183.7Y-91.08
X183.7Y-93.62
X183.7Y-96.16
X183.7Y-98.7
T2
X115.234Y-90.095G85X114.103Y-88.964
G05
X123.295Y-82.034G85X122.164Y-80.903
G05
T0
M30
