%TF.GenerationSoftware,KiCad,Pcbnew,7.0.0*%
%TF.CreationDate,2023-03-04T18:46:55+01:00*%
%TF.ProjectId,Z80Card,5a383043-6172-4642-9e6b-696361645f70,1.1*%
%TF.SameCoordinates,Original*%
%TF.FileFunction,Soldermask,Top*%
%TF.FilePolarity,Negative*%
%FSLAX46Y46*%
G04 Gerber Fmt 4.6, Leading zero omitted, Abs format (unit mm)*
G04 Created by KiCad (PCBNEW 7.0.0) date 2023-03-04 18:46:55*
%MOMM*%
%LPD*%
G01*
G04 APERTURE LIST*
G04 Aperture macros list*
%AMRoundRect*
0 Rectangle with rounded corners*
0 $1 Rounding radius*
0 $2 $3 $4 $5 $6 $7 $8 $9 X,Y pos of 4 corners*
0 Add a 4 corners polygon primitive as box body*
4,1,4,$2,$3,$4,$5,$6,$7,$8,$9,$2,$3,0*
0 Add four circle primitives for the rounded corners*
1,1,$1+$1,$2,$3*
1,1,$1+$1,$4,$5*
1,1,$1+$1,$6,$7*
1,1,$1+$1,$8,$9*
0 Add four rect primitives between the rounded corners*
20,1,$1+$1,$2,$3,$4,$5,0*
20,1,$1+$1,$4,$5,$6,$7,0*
20,1,$1+$1,$6,$7,$8,$9,0*
20,1,$1+$1,$8,$9,$2,$3,0*%
%AMHorizOval*
0 Thick line with rounded ends*
0 $1 width*
0 $2 $3 position (X,Y) of the first rounded end (center of the circle)*
0 $4 $5 position (X,Y) of the second rounded end (center of the circle)*
0 Add line between two ends*
20,1,$1,$2,$3,$4,$5,0*
0 Add two circle primitives to create the rounded ends*
1,1,$1,$2,$3*
1,1,$1,$4,$5*%
%AMRotRect*
0 Rectangle, with rotation*
0 The origin of the aperture is its center*
0 $1 length*
0 $2 width*
0 $3 Rotation angle, in degrees counterclockwise*
0 Add horizontal line*
21,1,$1,$2,0,0,$3*%
%AMFreePoly0*
4,1,19,0.499999,-0.750000,0.000000,-0.750000,0.000000,-0.744912,-0.071157,-0.744911,-0.207708,-0.704816,-0.327430,-0.627875,-0.420627,-0.520320,-0.479746,-0.390866,-0.500000,-0.250000,-0.500000,0.250000,-0.479746,0.390866,-0.420627,0.520320,-0.327430,0.627875,-0.207708,0.704816,-0.071157,0.744911,0.000000,0.744912,0.000000,0.750000,0.499999,0.750000,0.499999,-0.750000,0.499999,-0.750000,
$1*%
%AMFreePoly1*
4,1,19,0.000000,0.744912,0.071157,0.744911,0.207708,0.704816,0.327430,0.627875,0.420627,0.520320,0.479746,0.390866,0.500000,0.250000,0.500000,-0.250000,0.479746,-0.390866,0.420627,-0.520320,0.327430,-0.627875,0.207708,-0.704816,0.071157,-0.744911,0.000000,-0.744912,0.000000,-0.750000,-0.499999,-0.750000,-0.499999,0.750000,0.000000,0.750000,0.000000,0.744912,0.000000,0.744912,
$1*%
G04 Aperture macros list end*
%ADD10RoundRect,0.150000X0.150000X-0.512500X0.150000X0.512500X-0.150000X0.512500X-0.150000X-0.512500X0*%
%ADD11RoundRect,0.250000X-0.250000X-0.475000X0.250000X-0.475000X0.250000X0.475000X-0.250000X0.475000X0*%
%ADD12RoundRect,0.250000X0.159099X-0.512652X0.512652X-0.159099X-0.159099X0.512652X-0.512652X0.159099X0*%
%ADD13RoundRect,0.250000X0.848528X0.000000X0.000000X0.848528X-0.848528X0.000000X0.000000X-0.848528X0*%
%ADD14C,1.700000*%
%ADD15RoundRect,0.250000X0.475000X-0.250000X0.475000X0.250000X-0.475000X0.250000X-0.475000X-0.250000X0*%
%ADD16RoundRect,0.250000X-0.262500X-0.450000X0.262500X-0.450000X0.262500X0.450000X-0.262500X0.450000X0*%
%ADD17R,1.500000X0.550000*%
%ADD18R,0.550000X1.500000*%
%ADD19RoundRect,0.250000X-0.503814X-0.132583X-0.132583X-0.503814X0.503814X0.132583X0.132583X0.503814X0*%
%ADD20FreePoly0,135.000000*%
%ADD21FreePoly1,135.000000*%
%ADD22RoundRect,0.250000X-0.475000X0.250000X-0.475000X-0.250000X0.475000X-0.250000X0.475000X0.250000X0*%
%ADD23RoundRect,0.250000X-0.600000X-0.600000X0.600000X-0.600000X0.600000X0.600000X-0.600000X0.600000X0*%
%ADD24R,1.050000X0.650000*%
%ADD25RoundRect,0.250000X0.450000X-0.262500X0.450000X0.262500X-0.450000X0.262500X-0.450000X-0.262500X0*%
%ADD26R,0.900000X0.400000*%
%ADD27RoundRect,0.250000X-0.450000X0.262500X-0.450000X-0.262500X0.450000X-0.262500X0.450000X0.262500X0*%
%ADD28RoundRect,0.250000X0.250000X0.475000X-0.250000X0.475000X-0.250000X-0.475000X0.250000X-0.475000X0*%
%ADD29R,2.000000X4.500000*%
%ADD30RoundRect,0.250000X0.262500X0.450000X-0.262500X0.450000X-0.262500X-0.450000X0.262500X-0.450000X0*%
%ADD31RoundRect,0.150000X0.587500X0.150000X-0.587500X0.150000X-0.587500X-0.150000X0.587500X-0.150000X0*%
%ADD32RoundRect,0.225000X-0.225000X-0.375000X0.225000X-0.375000X0.225000X0.375000X-0.225000X0.375000X0*%
%ADD33RoundRect,0.137500X-0.327037X-0.521491X0.521491X0.327037X0.327037X0.521491X-0.521491X-0.327037X0*%
%ADD34RoundRect,0.137500X0.327037X-0.521491X0.521491X-0.327037X-0.327037X0.521491X-0.521491X0.327037X0*%
%ADD35RoundRect,0.218750X-0.256250X0.218750X-0.256250X-0.218750X0.256250X-0.218750X0.256250X0.218750X0*%
%ADD36RoundRect,0.250000X-0.512652X-0.159099X-0.159099X-0.512652X0.512652X0.159099X0.159099X0.512652X0*%
%ADD37RoundRect,0.150000X0.150000X-0.875000X0.150000X0.875000X-0.150000X0.875000X-0.150000X-0.875000X0*%
%ADD38R,0.800000X2.000000*%
%ADD39RoundRect,0.250000X-0.159099X0.512652X-0.512652X0.159099X0.159099X-0.512652X0.512652X-0.159099X0*%
%ADD40RoundRect,0.250000X0.512652X0.159099X0.159099X0.512652X-0.512652X-0.159099X-0.159099X-0.512652X0*%
%ADD41C,1.100000*%
%ADD42RotRect,2.500000X1.100000X135.000000*%
%ADD43HorizOval,1.900000X-0.565685X0.565685X0.565685X-0.565685X0*%
%ADD44RoundRect,0.150000X0.150000X-0.825000X0.150000X0.825000X-0.150000X0.825000X-0.150000X-0.825000X0*%
%ADD45RoundRect,0.218750X-0.218750X-0.256250X0.218750X-0.256250X0.218750X0.256250X-0.218750X0.256250X0*%
%ADD46R,1.500000X2.000000*%
%ADD47R,3.800000X2.000000*%
%ADD48RoundRect,0.150000X-0.875000X-0.150000X0.875000X-0.150000X0.875000X0.150000X-0.875000X0.150000X0*%
%ADD49RoundRect,0.225000X0.225000X0.375000X-0.225000X0.375000X-0.225000X-0.375000X0.225000X-0.375000X0*%
%ADD50RoundRect,0.150000X-0.689429X0.477297X0.477297X-0.689429X0.689429X-0.477297X-0.477297X0.689429X0*%
%ADD51RoundRect,0.150000X0.825000X0.150000X-0.825000X0.150000X-0.825000X-0.150000X0.825000X-0.150000X0*%
%ADD52C,1.000000*%
%ADD53R,1.600000X0.700000*%
%ADD54R,1.400000X1.200000*%
%ADD55R,2.200000X1.200000*%
%ADD56R,1.400000X1.600000*%
G04 APERTURE END LIST*
D10*
%TO.C,U11*%
X166350000Y-104837500D03*
X167300000Y-104837500D03*
X168250000Y-104837500D03*
X168250000Y-102562500D03*
X166350000Y-102562500D03*
%TD*%
D11*
%TO.C,C7*%
X128550000Y-119900000D03*
X130450000Y-119900000D03*
%TD*%
D12*
%TO.C,C9*%
X137628249Y-110171751D03*
X138971751Y-108828249D03*
%TD*%
D13*
%TO.C,J3*%
X112500000Y-102500000D03*
D14*
X110703949Y-100703949D03*
X114296051Y-100703949D03*
X112500000Y-98907898D03*
X116092102Y-98907898D03*
X114296051Y-97111846D03*
%TD*%
D15*
%TO.C,C19*%
X164400000Y-95250000D03*
X164400000Y-93350000D03*
%TD*%
D16*
%TO.C,R3*%
X122787500Y-102500000D03*
X124612500Y-102500000D03*
%TD*%
D17*
%TO.C,U4*%
X123049999Y-108149999D03*
X123049999Y-108949999D03*
X123049999Y-109749999D03*
X123049999Y-110549999D03*
X123049999Y-111349999D03*
X123049999Y-112149999D03*
X123049999Y-112949999D03*
X123049999Y-113749999D03*
X123049999Y-114549999D03*
X123049999Y-115349999D03*
X123049999Y-116149999D03*
D18*
X124749999Y-117849999D03*
X125549999Y-117849999D03*
X126349999Y-117849999D03*
X127149999Y-117849999D03*
X127949999Y-117849999D03*
X128749999Y-117849999D03*
X129549999Y-117849999D03*
X130349999Y-117849999D03*
X131149999Y-117849999D03*
X131949999Y-117849999D03*
X132749999Y-117849999D03*
D17*
X134449999Y-116149999D03*
X134449999Y-115349999D03*
X134449999Y-114549999D03*
X134449999Y-113749999D03*
X134449999Y-112949999D03*
X134449999Y-112149999D03*
X134449999Y-111349999D03*
X134449999Y-110549999D03*
X134449999Y-109749999D03*
X134449999Y-108949999D03*
X134449999Y-108149999D03*
D18*
X132749999Y-106449999D03*
X131949999Y-106449999D03*
X131149999Y-106449999D03*
X130349999Y-106449999D03*
X129549999Y-106449999D03*
X128749999Y-106449999D03*
X127949999Y-106449999D03*
X127149999Y-106449999D03*
X126349999Y-106449999D03*
X125549999Y-106449999D03*
X124749999Y-106449999D03*
%TD*%
D19*
%TO.C,FB1*%
X119979765Y-93729765D03*
X121270235Y-95020235D03*
%TD*%
D20*
%TO.C,JP2*%
X128759619Y-98659619D03*
D21*
X127840381Y-97740381D03*
%TD*%
D22*
%TO.C,C6*%
X121050000Y-98200000D03*
X121050000Y-100100000D03*
%TD*%
D23*
%TO.C,J2*%
X181160000Y-75840000D03*
D14*
X183700000Y-75840000D03*
X181160000Y-78380000D03*
X183700000Y-78380000D03*
X181160000Y-80920000D03*
X183700000Y-80920000D03*
X181160000Y-83460000D03*
X183700000Y-83460000D03*
X181160000Y-86000000D03*
X183700000Y-86000000D03*
X181160000Y-88540000D03*
X183700000Y-88540000D03*
X181160000Y-91080000D03*
X183700000Y-91080000D03*
X181160000Y-93620000D03*
X183700000Y-93620000D03*
X181160000Y-96160000D03*
X183700000Y-96160000D03*
X181160000Y-98700000D03*
X183700000Y-98700000D03*
%TD*%
D15*
%TO.C,C15*%
X158700000Y-109250000D03*
X158700000Y-107350000D03*
%TD*%
D24*
%TO.C,SW2*%
X140274999Y-117612499D03*
X144424999Y-117612499D03*
X140274999Y-119762499D03*
X144424999Y-119762499D03*
%TD*%
D25*
%TO.C,R8*%
X153900000Y-95962500D03*
X153900000Y-94137500D03*
%TD*%
D26*
%TO.C,RN1*%
X132049999Y-77999999D03*
X132049999Y-77199999D03*
X132049999Y-76399999D03*
X132049999Y-75599999D03*
X130349999Y-75599999D03*
X130349999Y-76399999D03*
X130349999Y-77199999D03*
X130349999Y-77999999D03*
%TD*%
D27*
%TO.C,R16*%
X105000000Y-108787500D03*
X105000000Y-110612500D03*
%TD*%
D26*
%TO.C,RN2*%
X132049999Y-81799999D03*
X132049999Y-80999999D03*
X132049999Y-80199999D03*
X132049999Y-79399999D03*
X130349999Y-79399999D03*
X130349999Y-80199999D03*
X130349999Y-80999999D03*
X130349999Y-81799999D03*
%TD*%
D27*
%TO.C,R13*%
X110800000Y-115687500D03*
X110800000Y-117512500D03*
%TD*%
D28*
%TO.C,C23*%
X164150000Y-103100000D03*
X162250000Y-103100000D03*
%TD*%
D27*
%TO.C,R1*%
X152100000Y-103987500D03*
X152100000Y-105812500D03*
%TD*%
D29*
%TO.C,Y1*%
X116340275Y-116364643D03*
X116340275Y-107864643D03*
%TD*%
D25*
%TO.C,R19*%
X105000000Y-103712500D03*
X105000000Y-101887500D03*
%TD*%
D30*
%TO.C,R11*%
X164112500Y-105050000D03*
X162287500Y-105050000D03*
%TD*%
D31*
%TO.C,D1*%
X157737500Y-95950000D03*
X157737500Y-94050000D03*
X155862500Y-95000000D03*
%TD*%
D32*
%TO.C,D9*%
X159750000Y-78600000D03*
X163050000Y-78600000D03*
%TD*%
D27*
%TO.C,R14*%
X110800000Y-112237500D03*
X110800000Y-114062500D03*
%TD*%
D33*
%TO.C,U2*%
X137767581Y-97775565D03*
X138333266Y-98341250D03*
X138898952Y-98906936D03*
X139464637Y-99472621D03*
X140030322Y-100038307D03*
X140596008Y-100603992D03*
X141161693Y-101169678D03*
X141727379Y-101735363D03*
X142293064Y-102301048D03*
X142858750Y-102866734D03*
X143424435Y-103432419D03*
D34*
X145775565Y-103432419D03*
X146341250Y-102866734D03*
X146906936Y-102301048D03*
X147472621Y-101735363D03*
X148038307Y-101169678D03*
X148603992Y-100603992D03*
X149169678Y-100038307D03*
X149735363Y-99472621D03*
X150301048Y-98906936D03*
X150866734Y-98341250D03*
X151432419Y-97775565D03*
D33*
X151432419Y-95424435D03*
X150866734Y-94858750D03*
X150301048Y-94293064D03*
X149735363Y-93727379D03*
X149169678Y-93161693D03*
X148603992Y-92596008D03*
X148038307Y-92030322D03*
X147472621Y-91464637D03*
X146906936Y-90898952D03*
X146341250Y-90333266D03*
X145775565Y-89767581D03*
D34*
X143424435Y-89767581D03*
X142858750Y-90333266D03*
X142293064Y-90898952D03*
X141727379Y-91464637D03*
X141161693Y-92030322D03*
X140596008Y-92596008D03*
X140030322Y-93161693D03*
X139464637Y-93727379D03*
X138898952Y-94293064D03*
X138333266Y-94858750D03*
X137767581Y-95424435D03*
%TD*%
D35*
%TO.C,D7*%
X103300000Y-115812500D03*
X103300000Y-117387500D03*
%TD*%
D27*
%TO.C,R6*%
X162200000Y-99487500D03*
X162200000Y-101312500D03*
%TD*%
D36*
%TO.C,C12*%
X122328249Y-96128249D03*
X123671751Y-97471751D03*
%TD*%
D31*
%TO.C,Q2*%
X108837499Y-117550000D03*
X108837499Y-115650000D03*
X106962499Y-116600000D03*
%TD*%
D15*
%TO.C,C5*%
X136700000Y-114250000D03*
X136700000Y-112350000D03*
%TD*%
D37*
%TO.C,U9*%
X166755000Y-80050000D03*
X168025000Y-80050000D03*
X169295000Y-80050000D03*
X170565000Y-80050000D03*
X171835000Y-80050000D03*
X173105000Y-80050000D03*
X174375000Y-80050000D03*
X175645000Y-80050000D03*
X175645000Y-70750000D03*
X174375000Y-70750000D03*
X173105000Y-70750000D03*
X171835000Y-70750000D03*
X170565000Y-70750000D03*
X169295000Y-70750000D03*
X168025000Y-70750000D03*
X166755000Y-70750000D03*
%TD*%
D38*
%TO.C,BT1*%
X159649999Y-81081897D03*
X161149999Y-81081897D03*
%TD*%
D27*
%TO.C,R17*%
X105000000Y-115687500D03*
X105000000Y-117512500D03*
%TD*%
D39*
%TO.C,C20*%
X125321751Y-86778249D03*
X123978249Y-88121751D03*
%TD*%
D25*
%TO.C,R2*%
X157800000Y-92512500D03*
X157800000Y-90687500D03*
%TD*%
D27*
%TO.C,R21*%
X164800000Y-78187500D03*
X164800000Y-80012500D03*
%TD*%
D35*
%TO.C,D5*%
X103300000Y-105462500D03*
X103300000Y-107037500D03*
%TD*%
D37*
%TO.C,U3*%
X134075000Y-83950000D03*
X135345000Y-83950000D03*
X136615000Y-83950000D03*
X137885000Y-83950000D03*
X139155000Y-83950000D03*
X140425000Y-83950000D03*
X141695000Y-83950000D03*
X142965000Y-83950000D03*
X144235000Y-83950000D03*
X145505000Y-83950000D03*
X146775000Y-83950000D03*
X148045000Y-83950000D03*
X149315000Y-83950000D03*
X150585000Y-83950000D03*
X151855000Y-83950000D03*
X153125000Y-83950000D03*
X153125000Y-70850000D03*
X151855000Y-70850000D03*
X150585000Y-70850000D03*
X149315000Y-70850000D03*
X148045000Y-70850000D03*
X146775000Y-70850000D03*
X145505000Y-70850000D03*
X144235000Y-70850000D03*
X142965000Y-70850000D03*
X141695000Y-70850000D03*
X140425000Y-70850000D03*
X139155000Y-70850000D03*
X137885000Y-70850000D03*
X136615000Y-70850000D03*
X135345000Y-70850000D03*
X134075000Y-70850000D03*
%TD*%
D35*
%TO.C,D8*%
X103300000Y-112362500D03*
X103300000Y-113937500D03*
%TD*%
D15*
%TO.C,C3*%
X132000000Y-72650000D03*
X132000000Y-70750000D03*
%TD*%
D40*
%TO.C,C22*%
X133071751Y-89271751D03*
X131728249Y-87928249D03*
%TD*%
D27*
%TO.C,R15*%
X105000000Y-105337500D03*
X105000000Y-107162500D03*
%TD*%
D41*
%TO.C,J1*%
X117072691Y-87125382D03*
X120325382Y-83872691D03*
D42*
X118168706Y-89918453D03*
X119936473Y-88150686D03*
X121350686Y-86736473D03*
X123118453Y-84968706D03*
D43*
X114668527Y-89529544D03*
X122729544Y-81468527D03*
%TD*%
D44*
%TO.C,U6*%
X160490000Y-112475000D03*
X161760000Y-112475000D03*
X163030000Y-112475000D03*
X164300000Y-112475000D03*
X165570000Y-112475000D03*
X166840000Y-112475000D03*
X168110000Y-112475000D03*
X168110000Y-107525000D03*
X166840000Y-107525000D03*
X165570000Y-107525000D03*
X164300000Y-107525000D03*
X163030000Y-107525000D03*
X161760000Y-107525000D03*
X160490000Y-107525000D03*
%TD*%
D15*
%TO.C,C1*%
X139050000Y-104650000D03*
X139050000Y-102750000D03*
%TD*%
%TO.C,C18*%
X162350000Y-95250000D03*
X162350000Y-93350000D03*
%TD*%
D45*
%TO.C,D3*%
X146562500Y-115600000D03*
X148137500Y-115600000D03*
%TD*%
D31*
%TO.C,Q1*%
X108837500Y-114100000D03*
X108837500Y-112200000D03*
X106962500Y-113150000D03*
%TD*%
D35*
%TO.C,D6*%
X103300000Y-108912500D03*
X103300000Y-110487500D03*
%TD*%
D26*
%TO.C,RN3*%
X155149999Y-75599999D03*
X155149999Y-76399999D03*
X155149999Y-77199999D03*
X155149999Y-77999999D03*
X156849999Y-77999999D03*
X156849999Y-77199999D03*
X156849999Y-76399999D03*
X156849999Y-75599999D03*
%TD*%
D16*
%TO.C,R4*%
X122787500Y-104450000D03*
X124612500Y-104450000D03*
%TD*%
D22*
%TO.C,C13*%
X165350000Y-117950000D03*
X165350000Y-119850000D03*
%TD*%
D46*
%TO.C,U5*%
X158399999Y-121249999D03*
X160699999Y-121249999D03*
X162999999Y-121249999D03*
D47*
X160699999Y-114949999D03*
%TD*%
D27*
%TO.C,R18*%
X104999999Y-112237500D03*
X104999999Y-114062500D03*
%TD*%
%TO.C,R7*%
X164200000Y-99487500D03*
X164200000Y-101312500D03*
%TD*%
D35*
%TO.C,D4*%
X103300000Y-102012500D03*
X103300000Y-103587500D03*
%TD*%
D48*
%TO.C,U7*%
X166700000Y-82995000D03*
X166700000Y-84265000D03*
X166700000Y-85535000D03*
X166700000Y-86805000D03*
X166700000Y-88075000D03*
X166700000Y-89345000D03*
X166700000Y-90615000D03*
X166700000Y-91885000D03*
X166700000Y-93155000D03*
X166700000Y-94425000D03*
X166700000Y-95695000D03*
X166700000Y-96965000D03*
X166700000Y-98235000D03*
X166700000Y-99505000D03*
X176000000Y-99505000D03*
X176000000Y-98235000D03*
X176000000Y-96965000D03*
X176000000Y-95695000D03*
X176000000Y-94425000D03*
X176000000Y-93155000D03*
X176000000Y-91885000D03*
X176000000Y-90615000D03*
X176000000Y-89345000D03*
X176000000Y-88075000D03*
X176000000Y-86805000D03*
X176000000Y-85535000D03*
X176000000Y-84265000D03*
X176000000Y-82995000D03*
%TD*%
D24*
%TO.C,SW1*%
X150274999Y-117612499D03*
X154424999Y-117612499D03*
X150274999Y-119762499D03*
X154424999Y-119762499D03*
%TD*%
D49*
%TO.C,D2*%
X126050000Y-100400000D03*
X122750000Y-100400000D03*
%TD*%
D22*
%TO.C,C10*%
X120000000Y-110050000D03*
X120000000Y-111950000D03*
%TD*%
D25*
%TO.C,R9*%
X148400000Y-119012500D03*
X148400000Y-117187500D03*
%TD*%
D16*
%TO.C,R5*%
X122787500Y-119800000D03*
X124612500Y-119800000D03*
%TD*%
D15*
%TO.C,C11*%
X129100000Y-104650000D03*
X129100000Y-102750000D03*
%TD*%
%TO.C,C4*%
X112750000Y-118200000D03*
X112750000Y-116300000D03*
%TD*%
D26*
%TO.C,RN4*%
X155149999Y-79399999D03*
X155149999Y-80199999D03*
X155149999Y-80999999D03*
X155149999Y-81799999D03*
X156849999Y-81799999D03*
X156849999Y-80999999D03*
X156849999Y-80199999D03*
X156849999Y-79399999D03*
%TD*%
D28*
%TO.C,C2*%
X155950000Y-106900000D03*
X154050000Y-106900000D03*
%TD*%
D50*
%TO.C,U8*%
X128333054Y-87046925D03*
X127435029Y-87944951D03*
X126537003Y-88842976D03*
X125638978Y-89741002D03*
X124740952Y-90639028D03*
X123842926Y-91537053D03*
X122944901Y-92435079D03*
X122046875Y-93333104D03*
X125547054Y-96833283D03*
X126445079Y-95935257D03*
X127343105Y-95037232D03*
X128241130Y-94139206D03*
X129139156Y-93241180D03*
X130037182Y-92343155D03*
X130935207Y-91445129D03*
X131833233Y-90547104D03*
%TD*%
D15*
%TO.C,C17*%
X169400000Y-116350000D03*
X169400000Y-114450000D03*
%TD*%
D20*
%TO.C,JP1*%
X130909619Y-96559619D03*
D21*
X129990381Y-95640381D03*
%TD*%
D51*
%TO.C,U1*%
X159270011Y-105135011D03*
X159270011Y-103865011D03*
X159270011Y-102595011D03*
X159270011Y-101325011D03*
X159270011Y-100055011D03*
X159270011Y-98785011D03*
X159270011Y-97515011D03*
X154320011Y-97515011D03*
X154320011Y-98785011D03*
X154320011Y-100055011D03*
X154320011Y-101325011D03*
X154320011Y-102595011D03*
X154320011Y-103865011D03*
X154320011Y-105135011D03*
%TD*%
D15*
%TO.C,C14*%
X165350000Y-116350000D03*
X165350000Y-114450000D03*
%TD*%
D39*
%TO.C,C21*%
X133446751Y-92128249D03*
X132103249Y-93471751D03*
%TD*%
D22*
%TO.C,C8*%
X112750000Y-106050000D03*
X112750000Y-107950000D03*
%TD*%
D25*
%TO.C,R10*%
X146200000Y-119012500D03*
X146200000Y-117187500D03*
%TD*%
D52*
%TO.C,J4*%
X182917500Y-118200000D03*
X182917500Y-110200000D03*
D53*
X172417499Y-110999999D03*
X172417499Y-112099999D03*
X172417499Y-113199999D03*
X172417499Y-114299999D03*
X172417499Y-115399999D03*
X172417499Y-116499999D03*
X172417499Y-117599999D03*
X172417499Y-118699999D03*
X172417499Y-119799999D03*
D54*
X172917499Y-120999999D03*
D55*
X182517499Y-120999999D03*
D56*
X172917499Y-106399999D03*
D55*
X182517499Y-105499999D03*
%TD*%
D16*
%TO.C,R12*%
X143487500Y-111800000D03*
X145312500Y-111800000D03*
%TD*%
%TO.C,R20*%
X170287500Y-101500000D03*
X172112500Y-101500000D03*
%TD*%
D15*
%TO.C,C16*%
X167400000Y-116350000D03*
X167400000Y-114450000D03*
%TD*%
M02*
